<svg xmlns="http://www.w3.org/2000/svg" xmlns:xlink="http://www.w3.org/1999/xlink" width="336" zoomAndPan="magnify" viewBox="0 0 252 143.999998" height="192" preserveAspectRatio="xMidYMid meet" version="1.0"><defs><g/><clipPath id="c165e36a71"><rect x="0" width="102" y="0" height="24"/></clipPath><clipPath id="8ad6f5ea1a"><path d="M 139.714844 36.898438 L 143.175781 36.898438 L 143.175781 40.359375 L 139.714844 40.359375 Z M 139.714844 36.898438 " clip-rule="nonzero"/></clipPath><clipPath id="fee461bbbf"><path d="M 141.445312 36.898438 C 140.488281 36.898438 139.714844 37.675781 139.714844 38.628906 C 139.714844 39.585938 140.488281 40.359375 141.445312 40.359375 C 142.402344 40.359375 143.175781 39.585938 143.175781 38.628906 C 143.175781 37.675781 142.402344 36.898438 141.445312 36.898438 Z M 141.445312 36.898438 " clip-rule="nonzero"/></clipPath><clipPath id="7cbe73f68c"><path d="M 0.714844 0.898438 L 4.175781 0.898438 L 4.175781 4.359375 L 0.714844 4.359375 Z M 0.714844 0.898438 " clip-rule="nonzero"/></clipPath><clipPath id="b98159ab5d"><path d="M 2.445312 0.898438 C 1.488281 0.898438 0.714844 1.675781 0.714844 2.628906 C 0.714844 3.585938 1.488281 4.359375 2.445312 4.359375 C 3.402344 4.359375 4.175781 3.585938 4.175781 2.628906 C 4.175781 1.675781 3.402344 0.898438 2.445312 0.898438 Z M 2.445312 0.898438 " clip-rule="nonzero"/></clipPath><clipPath id="742d4c2de2"><rect x="0" width="5" y="0" height="5"/></clipPath><clipPath id="5c68b8e97a"><path d="M 69 2 L 72 2 L 72 6.398438 L 69 6.398438 Z M 69 2 " clip-rule="nonzero"/></clipPath><clipPath id="2386fbc763"><rect x="0" width="84" y="0" height="7"/></clipPath></defs><g transform="matrix(1, 0, 0, 1, 75, 33)"><g clip-path="url(#c165e36a71)"><g fill="#1f1f1f" fill-opacity="1"><g transform="translate(0.326321, 18.800305)"><g><path d="M 1.765625 0 L 1.765625 -13.96875 L 3.078125 -13.96875 L 3.078125 -7.734375 L 10.9375 -7.734375 L 10.9375 -13.96875 L 12.265625 -13.96875 L 12.265625 0 L 10.9375 0 L 10.9375 -6.546875 L 3.078125 -6.546875 L 3.078125 0 Z M 1.765625 0 "/></g></g></g><g fill="#1f1f1f" fill-opacity="1"><g transform="translate(14.484838, 18.800305)"><g><path d="M 5.5625 0.21875 C 4.664062 0.21875 3.867188 -0.00390625 3.171875 -0.453125 C 2.484375 -0.910156 1.941406 -1.539062 1.546875 -2.34375 C 1.160156 -3.15625 0.96875 -4.082031 0.96875 -5.125 C 0.96875 -6.1875 1.160156 -7.117188 1.546875 -7.921875 C 1.941406 -8.734375 2.484375 -9.363281 3.171875 -9.8125 C 3.867188 -10.269531 4.664062 -10.5 5.5625 -10.5 C 6.476562 -10.5 7.28125 -10.269531 7.96875 -9.8125 C 8.664062 -9.363281 9.207031 -8.734375 9.59375 -7.921875 C 9.988281 -7.117188 10.1875 -6.1875 10.1875 -5.125 C 10.1875 -4.082031 9.988281 -3.15625 9.59375 -2.34375 C 9.207031 -1.539062 8.664062 -0.910156 7.96875 -0.453125 C 7.28125 -0.00390625 6.476562 0.21875 5.5625 0.21875 Z M 5.5625 -0.921875 C 6.28125 -0.921875 6.882812 -1.109375 7.375 -1.484375 C 7.875 -1.859375 8.253906 -2.363281 8.515625 -3 C 8.785156 -3.644531 8.921875 -4.351562 8.921875 -5.125 C 8.921875 -5.914062 8.785156 -6.628906 8.515625 -7.265625 C 8.253906 -7.910156 7.875 -8.421875 7.375 -8.796875 C 6.875 -9.171875 6.269531 -9.359375 5.5625 -9.359375 C 4.863281 -9.359375 4.265625 -9.164062 3.765625 -8.78125 C 3.273438 -8.40625 2.894531 -7.898438 2.625 -7.265625 C 2.363281 -6.628906 2.234375 -5.914062 2.234375 -5.125 C 2.234375 -4.34375 2.363281 -3.632812 2.625 -3 C 2.894531 -2.363281 3.273438 -1.859375 3.765625 -1.484375 C 4.265625 -1.109375 4.863281 -0.921875 5.5625 -0.921875 Z M 5.5625 -0.921875 "/></g></g></g><g fill="#1f1f1f" fill-opacity="1"><g transform="translate(25.765409, 18.800305)"><g><path d="M 5.125 -10.359375 L 5.125 -9.25 L 0.140625 -9.25 L 0.140625 -10.359375 Z M 1.734375 -12.890625 L 2.984375 -12.890625 L 2.984375 -2.421875 C 2.984375 -1.921875 3.09375 -1.554688 3.3125 -1.328125 C 3.539062 -1.097656 3.882812 -1.003906 4.34375 -1.046875 C 4.445312 -1.046875 4.566406 -1.050781 4.703125 -1.0625 C 4.835938 -1.082031 4.960938 -1.101562 5.078125 -1.125 L 5.28125 -0.03125 C 5.144531 0 4.988281 0.0234375 4.8125 0.046875 C 4.644531 0.0664062 4.484375 0.078125 4.328125 0.078125 C 3.503906 0.128906 2.863281 -0.0546875 2.40625 -0.484375 C 1.957031 -0.921875 1.734375 -1.535156 1.734375 -2.328125 Z M 1.734375 -12.890625 "/></g></g></g><g fill="#1f1f1f" fill-opacity="1"><g transform="translate(31.402582, 18.800305)"><g><path d="M 5.703125 0.21875 C 4.734375 0.21875 3.894531 -0.00390625 3.1875 -0.453125 C 2.476562 -0.910156 1.929688 -1.539062 1.546875 -2.34375 C 1.160156 -3.144531 0.96875 -4.070312 0.96875 -5.125 C 0.96875 -6.164062 1.160156 -7.09375 1.546875 -7.90625 C 1.929688 -8.71875 2.46875 -9.351562 3.15625 -9.8125 C 3.84375 -10.269531 4.628906 -10.5 5.515625 -10.5 C 6.117188 -10.5 6.6875 -10.390625 7.21875 -10.171875 C 7.757812 -9.960938 8.234375 -9.640625 8.640625 -9.203125 C 9.054688 -8.765625 9.382812 -8.222656 9.625 -7.578125 C 9.863281 -6.929688 9.984375 -6.175781 9.984375 -5.3125 L 9.984375 -4.8125 L 1.765625 -4.8125 L 1.765625 -5.890625 L 9.296875 -5.890625 L 8.734375 -5.5 C 8.734375 -6.25 8.601562 -6.914062 8.34375 -7.5 C 8.082031 -8.082031 7.710938 -8.539062 7.234375 -8.875 C 6.753906 -9.207031 6.179688 -9.375 5.515625 -9.375 C 4.859375 -9.375 4.285156 -9.203125 3.796875 -8.859375 C 3.304688 -8.515625 2.921875 -8.054688 2.640625 -7.484375 C 2.367188 -6.910156 2.234375 -6.273438 2.234375 -5.578125 L 2.234375 -4.96875 C 2.234375 -4.15625 2.375 -3.445312 2.65625 -2.84375 C 2.9375 -2.238281 3.335938 -1.765625 3.859375 -1.421875 C 4.378906 -1.085938 4.992188 -0.921875 5.703125 -0.921875 C 6.191406 -0.921875 6.625 -1 7 -1.15625 C 7.382812 -1.3125 7.707031 -1.523438 7.96875 -1.796875 C 8.226562 -2.066406 8.421875 -2.367188 8.546875 -2.703125 L 9.75 -2.40625 C 9.59375 -1.925781 9.328125 -1.484375 8.953125 -1.078125 C 8.585938 -0.679688 8.128906 -0.363281 7.578125 -0.125 C 7.023438 0.101562 6.398438 0.21875 5.703125 0.21875 Z M 5.703125 0.21875 "/></g></g></g><g fill="#1f1f1f" fill-opacity="1"><g transform="translate(42.43942, 18.800305)"><g><path d="M 2.78125 -13.96875 L 2.78125 0 L 1.515625 0 L 1.515625 -13.96875 Z M 2.78125 -13.96875 "/></g></g></g><g fill="#1f1f1f" fill-opacity="1"><g transform="translate(46.86757, 18.800305)"><g><path d="M 1.625 0 L 1.625 -13.96875 L 4.09375 -13.96875 L 7.5625 -5.109375 C 7.644531 -4.898438 7.738281 -4.640625 7.84375 -4.328125 C 7.945312 -4.023438 8.054688 -3.695312 8.171875 -3.34375 C 8.296875 -3 8.410156 -2.65625 8.515625 -2.3125 C 8.617188 -1.96875 8.707031 -1.65625 8.78125 -1.375 L 8.390625 -1.375 C 8.472656 -1.644531 8.566406 -1.945312 8.671875 -2.28125 C 8.773438 -2.625 8.882812 -2.972656 9 -3.328125 C 9.113281 -3.679688 9.222656 -4.015625 9.328125 -4.328125 C 9.441406 -4.640625 9.539062 -4.898438 9.625 -5.109375 L 13.046875 -13.96875 L 15.53125 -13.96875 L 15.53125 0 L 13.796875 0 L 13.796875 -8 C 13.796875 -8.289062 13.796875 -8.617188 13.796875 -8.984375 C 13.796875 -9.347656 13.800781 -9.726562 13.8125 -10.125 C 13.820312 -10.519531 13.832031 -10.921875 13.84375 -11.328125 C 13.851562 -11.742188 13.863281 -12.140625 13.875 -12.515625 L 14.03125 -12.515625 C 13.90625 -12.085938 13.765625 -11.65625 13.609375 -11.21875 C 13.460938 -10.78125 13.320312 -10.359375 13.1875 -9.953125 C 13.050781 -9.546875 12.921875 -9.175781 12.796875 -8.84375 C 12.671875 -8.507812 12.566406 -8.226562 12.484375 -8 L 9.328125 0 L 7.8125 0 L 4.625 -8 C 4.53125 -8.21875 4.425781 -8.488281 4.3125 -8.8125 C 4.195312 -9.144531 4.066406 -9.507812 3.921875 -9.90625 C 3.785156 -10.3125 3.640625 -10.734375 3.484375 -11.171875 C 3.335938 -11.617188 3.1875 -12.066406 3.03125 -12.515625 L 3.21875 -12.515625 C 3.238281 -12.171875 3.25 -11.796875 3.25 -11.390625 C 3.257812 -10.992188 3.269531 -10.59375 3.28125 -10.1875 C 3.289062 -9.789062 3.296875 -9.40625 3.296875 -9.03125 C 3.304688 -8.65625 3.3125 -8.3125 3.3125 -8 L 3.3125 0 Z M 1.625 0 "/></g></g></g><g fill="#1f1f1f" fill-opacity="1"><g transform="translate(64.147766, 18.800305)"><g><path d="M 1.421875 0 L 1.421875 -10.359375 L 3.078125 -10.359375 L 3.078125 0 Z M 2.25 -12.109375 C 1.9375 -12.109375 1.664062 -12.21875 1.4375 -12.4375 C 1.21875 -12.65625 1.109375 -12.921875 1.109375 -13.234375 C 1.109375 -13.535156 1.21875 -13.796875 1.4375 -14.015625 C 1.664062 -14.234375 1.9375 -14.34375 2.25 -14.34375 C 2.570312 -14.34375 2.847656 -14.234375 3.078125 -14.015625 C 3.304688 -13.796875 3.421875 -13.535156 3.421875 -13.234375 C 3.421875 -12.921875 3.304688 -12.65625 3.078125 -12.4375 C 2.847656 -12.21875 2.570312 -12.109375 2.25 -12.109375 Z M 2.25 -12.109375 "/></g></g></g><g fill="#1f1f1f" fill-opacity="1"><g transform="translate(68.781879, 18.800305)"><g><path d="M 3.078125 -6.171875 L 3.078125 0 L 1.421875 0 L 1.421875 -10.359375 L 3.015625 -10.359375 L 3.03125 -7.84375 L 2.75 -7.84375 C 3.0625 -8.789062 3.507812 -9.46875 4.09375 -9.875 C 4.6875 -10.289062 5.378906 -10.5 6.171875 -10.5 C 6.878906 -10.5 7.5 -10.351562 8.03125 -10.0625 C 8.5625 -9.769531 8.976562 -9.332031 9.28125 -8.75 C 9.59375 -8.164062 9.75 -7.429688 9.75 -6.546875 L 9.75 0 L 8.078125 0 L 8.078125 -6.40625 C 8.078125 -7.21875 7.863281 -7.847656 7.4375 -8.296875 C 7.019531 -8.753906 6.445312 -8.984375 5.71875 -8.984375 C 5.21875 -8.984375 4.769531 -8.878906 4.375 -8.671875 C 3.976562 -8.460938 3.660156 -8.144531 3.421875 -7.71875 C 3.191406 -7.300781 3.078125 -6.785156 3.078125 -6.171875 Z M 3.078125 -6.171875 "/></g></g></g><g fill="#1f1f1f" fill-opacity="1"><g transform="translate(80.071825, 18.800305)"><g><path d="M 5.3125 0.21875 C 4.445312 0.21875 3.679688 0 3.015625 -0.4375 C 2.359375 -0.882812 1.84375 -1.507812 1.46875 -2.3125 C 1.09375 -3.113281 0.90625 -4.0625 0.90625 -5.15625 C 0.90625 -6.238281 1.09375 -7.179688 1.46875 -7.984375 C 1.84375 -8.785156 2.359375 -9.40625 3.015625 -9.84375 C 3.679688 -10.28125 4.445312 -10.5 5.3125 -10.5 C 5.9375 -10.5 6.445312 -10.394531 6.84375 -10.1875 C 7.25 -9.988281 7.570312 -9.75 7.8125 -9.46875 C 8.050781 -9.195312 8.238281 -8.945312 8.375 -8.71875 L 8.46875 -8.71875 L 8.46875 -13.96875 L 10.140625 -13.96875 L 10.140625 0 L 8.53125 0 L 8.53125 -1.59375 L 8.375 -1.59375 C 8.238281 -1.351562 8.046875 -1.09375 7.796875 -0.8125 C 7.554688 -0.53125 7.234375 -0.285156 6.828125 -0.078125 C 6.429688 0.117188 5.925781 0.21875 5.3125 0.21875 Z M 5.5625 -1.28125 C 6.1875 -1.28125 6.71875 -1.441406 7.15625 -1.765625 C 7.601562 -2.097656 7.941406 -2.554688 8.171875 -3.140625 C 8.398438 -3.722656 8.515625 -4.398438 8.515625 -5.171875 C 8.515625 -5.929688 8.398438 -6.597656 8.171875 -7.171875 C 7.953125 -7.753906 7.617188 -8.207031 7.171875 -8.53125 C 6.734375 -8.851562 6.195312 -9.015625 5.5625 -9.015625 C 4.925781 -9.015625 4.382812 -8.847656 3.9375 -8.515625 C 3.5 -8.179688 3.164062 -7.722656 2.9375 -7.140625 C 2.707031 -6.566406 2.59375 -5.910156 2.59375 -5.171875 C 2.59375 -4.421875 2.707031 -3.75 2.9375 -3.15625 C 3.164062 -2.570312 3.5 -2.113281 3.9375 -1.78125 C 4.382812 -1.445312 4.925781 -1.28125 5.5625 -1.28125 Z M 5.5625 -1.28125 "/></g></g></g><g fill="#1f1f1f" fill-opacity="1"><g transform="translate(91.764868, 18.800305)"><g><path d="M 4.953125 0.21875 C 4.234375 0.21875 3.59375 0.113281 3.03125 -0.09375 C 2.46875 -0.3125 2.003906 -0.632812 1.640625 -1.0625 C 1.285156 -1.488281 1.054688 -2.015625 0.953125 -2.640625 L 2.546875 -2.9375 C 2.671875 -2.351562 2.9375 -1.921875 3.34375 -1.640625 C 3.757812 -1.367188 4.289062 -1.234375 4.9375 -1.234375 C 5.65625 -1.234375 6.226562 -1.382812 6.65625 -1.6875 C 7.082031 -2 7.296875 -2.367188 7.296875 -2.796875 C 7.296875 -3.160156 7.164062 -3.460938 6.90625 -3.703125 C 6.644531 -3.941406 6.265625 -4.117188 5.765625 -4.234375 L 4.046875 -4.640625 C 3.109375 -4.859375 2.40625 -5.203125 1.9375 -5.671875 C 1.476562 -6.148438 1.25 -6.753906 1.25 -7.484375 C 1.25 -8.078125 1.410156 -8.597656 1.734375 -9.046875 C 2.066406 -9.503906 2.519531 -9.859375 3.09375 -10.109375 C 3.664062 -10.367188 4.320312 -10.5 5.0625 -10.5 C 5.769531 -10.5 6.378906 -10.382812 6.890625 -10.15625 C 7.410156 -9.9375 7.828125 -9.625 8.140625 -9.21875 C 8.453125 -8.820312 8.671875 -8.363281 8.796875 -7.84375 L 7.28125 -7.53125 C 7.164062 -7.9375 6.929688 -8.296875 6.578125 -8.609375 C 6.234375 -8.921875 5.734375 -9.078125 5.078125 -9.078125 C 4.453125 -9.078125 3.9375 -8.929688 3.53125 -8.640625 C 3.125 -8.359375 2.921875 -8 2.921875 -7.5625 C 2.921875 -7.175781 3.0625 -6.867188 3.34375 -6.640625 C 3.625 -6.410156 4.054688 -6.222656 4.640625 -6.078125 L 6.21875 -5.703125 C 7.175781 -5.484375 7.878906 -5.140625 8.328125 -4.671875 C 8.785156 -4.203125 9.015625 -3.609375 9.015625 -2.890625 C 9.015625 -2.285156 8.84375 -1.75 8.5 -1.28125 C 8.15625 -0.8125 7.675781 -0.441406 7.0625 -0.171875 C 6.457031 0.0859375 5.753906 0.21875 4.953125 0.21875 Z M 4.953125 0.21875 "/></g></g></g></g></g><g clip-path="url(#8ad6f5ea1a)"><g clip-path="url(#fee461bbbf)"><g transform="matrix(1, 0, 0, 1, 139, 36)"><g clip-path="url(#742d4c2de2)"><g clip-path="url(#7cbe73f68c)"><g clip-path="url(#b98159ab5d)"><path fill="#b89c5a" d="M 0.714844 0.898438 L 4.175781 0.898438 L 4.175781 4.359375 L 0.714844 4.359375 Z M 0.714844 0.898438 " fill-opacity="1" fill-rule="nonzero"/></g></g></g></g></g></g><g transform="matrix(1, 0, 0, 1, 84, 56)"><g clip-path="url(#2386fbc763)"><g fill="#4a4a4a" fill-opacity="1"><g transform="translate(1.202436, 4.992335)"><g><path d="M 0.4375 0 L 0.4375 -3.484375 L 0.90625 -3.484375 L 1.875 -1.09375 C 1.894531 -1.039062 1.914062 -0.976562 1.9375 -0.90625 C 1.96875 -0.832031 2 -0.757812 2.03125 -0.6875 C 2.0625 -0.613281 2.085938 -0.535156 2.109375 -0.453125 C 2.128906 -0.378906 2.148438 -0.3125 2.171875 -0.25 L 2.09375 -0.25 C 2.113281 -0.3125 2.132812 -0.378906 2.15625 -0.453125 C 2.1875 -0.523438 2.210938 -0.597656 2.234375 -0.671875 C 2.265625 -0.753906 2.289062 -0.832031 2.3125 -0.90625 C 2.34375 -0.976562 2.367188 -1.039062 2.390625 -1.09375 L 3.359375 -3.484375 L 3.828125 -3.484375 L 3.828125 0 L 3.5 0 L 3.5 -2.21875 C 3.5 -2.289062 3.5 -2.363281 3.5 -2.4375 C 3.5 -2.519531 3.5 -2.601562 3.5 -2.6875 C 3.5 -2.78125 3.5 -2.867188 3.5 -2.953125 C 3.507812 -3.046875 3.515625 -3.140625 3.515625 -3.234375 L 3.546875 -3.234375 C 3.515625 -3.140625 3.484375 -3.039062 3.453125 -2.9375 C 3.421875 -2.84375 3.390625 -2.75 3.359375 -2.65625 C 3.328125 -2.570312 3.296875 -2.492188 3.265625 -2.421875 C 3.234375 -2.347656 3.207031 -2.28125 3.1875 -2.21875 L 2.28125 0 L 1.984375 0 L 1.078125 -2.21875 C 1.046875 -2.28125 1.015625 -2.347656 0.984375 -2.421875 C 0.960938 -2.492188 0.9375 -2.570312 0.90625 -2.65625 C 0.875 -2.75 0.835938 -2.84375 0.796875 -2.9375 C 0.765625 -3.03125 0.734375 -3.128906 0.703125 -3.234375 L 0.75 -3.234375 C 0.75 -3.148438 0.75 -3.0625 0.75 -2.96875 C 0.75 -2.882812 0.75 -2.796875 0.75 -2.703125 C 0.75 -2.617188 0.75 -2.535156 0.75 -2.453125 C 0.75 -2.367188 0.75 -2.289062 0.75 -2.21875 L 0.75 0 Z M 0.4375 0 "/></g></g></g><g fill="#4a4a4a" fill-opacity="1"><g transform="translate(5.469737, 4.992335)"><g><path d="M 1.078125 0.046875 C 0.921875 0.046875 0.773438 0.0195312 0.640625 -0.03125 C 0.515625 -0.09375 0.410156 -0.179688 0.328125 -0.296875 C 0.253906 -0.410156 0.21875 -0.550781 0.21875 -0.71875 C 0.21875 -0.851562 0.238281 -0.960938 0.28125 -1.046875 C 0.332031 -1.140625 0.398438 -1.210938 0.484375 -1.265625 C 0.578125 -1.316406 0.6875 -1.359375 0.8125 -1.390625 C 0.9375 -1.421875 1.070312 -1.445312 1.21875 -1.46875 C 1.363281 -1.488281 1.488281 -1.503906 1.59375 -1.515625 C 1.695312 -1.535156 1.773438 -1.554688 1.828125 -1.578125 C 1.878906 -1.609375 1.90625 -1.660156 1.90625 -1.734375 L 1.90625 -1.78125 C 1.90625 -1.894531 1.878906 -1.992188 1.828125 -2.078125 C 1.773438 -2.160156 1.703125 -2.222656 1.609375 -2.265625 C 1.523438 -2.316406 1.414062 -2.34375 1.28125 -2.34375 C 1.15625 -2.34375 1.046875 -2.320312 0.953125 -2.28125 C 0.859375 -2.238281 0.78125 -2.1875 0.71875 -2.125 C 0.65625 -2.0625 0.613281 -1.988281 0.59375 -1.90625 L 0.28125 -1.984375 C 0.332031 -2.128906 0.40625 -2.25 0.5 -2.34375 C 0.601562 -2.4375 0.722656 -2.503906 0.859375 -2.546875 C 0.992188 -2.597656 1.132812 -2.625 1.28125 -2.625 C 1.382812 -2.625 1.492188 -2.609375 1.609375 -2.578125 C 1.722656 -2.546875 1.820312 -2.492188 1.90625 -2.421875 C 2 -2.359375 2.070312 -2.269531 2.125 -2.15625 C 2.1875 -2.050781 2.21875 -1.921875 2.21875 -1.765625 L 2.21875 0 L 1.90625 0 L 1.90625 -0.40625 L 1.890625 -0.40625 C 1.847656 -0.332031 1.789062 -0.257812 1.71875 -0.1875 C 1.644531 -0.113281 1.554688 -0.0546875 1.453125 -0.015625 C 1.347656 0.0234375 1.222656 0.046875 1.078125 0.046875 Z M 1.125 -0.234375 C 1.28125 -0.234375 1.414062 -0.265625 1.53125 -0.328125 C 1.65625 -0.398438 1.75 -0.492188 1.8125 -0.609375 C 1.875 -0.722656 1.90625 -0.851562 1.90625 -1 L 1.90625 -1.359375 C 1.875 -1.335938 1.832031 -1.316406 1.78125 -1.296875 C 1.738281 -1.285156 1.679688 -1.269531 1.609375 -1.25 C 1.546875 -1.238281 1.476562 -1.226562 1.40625 -1.21875 C 1.34375 -1.21875 1.28125 -1.210938 1.21875 -1.203125 C 1.070312 -1.179688 0.945312 -1.148438 0.84375 -1.109375 C 0.75 -1.078125 0.671875 -1.023438 0.609375 -0.953125 C 0.554688 -0.890625 0.53125 -0.804688 0.53125 -0.703125 C 0.53125 -0.609375 0.554688 -0.523438 0.609375 -0.453125 C 0.660156 -0.378906 0.726562 -0.320312 0.8125 -0.28125 C 0.90625 -0.25 1.007812 -0.234375 1.125 -0.234375 Z M 1.125 -0.234375 "/></g></g></g><g fill="#4a4a4a" fill-opacity="1"><g transform="translate(8.063863, 4.992335)"><g><path d="M 0.671875 -0.96875 L 0.671875 -1.375 L 0.71875 -1.375 L 1.921875 -2.578125 L 2.328125 -2.578125 L 1.140625 -1.390625 L 1.09375 -1.375 Z M 0.375 0 L 0.375 -3.484375 L 0.6875 -3.484375 L 0.6875 0 Z M 2 0 L 0.953125 -1.328125 L 1.171875 -1.546875 L 2.40625 0 Z M 2 0 "/></g></g></g><g fill="#4a4a4a" fill-opacity="1"><g transform="translate(10.435346, 4.992335)"><g><path d="M 1.421875 0.046875 C 1.179688 0.046875 0.972656 -0.00390625 0.796875 -0.109375 C 0.617188 -0.222656 0.476562 -0.378906 0.375 -0.578125 C 0.28125 -0.785156 0.234375 -1.019531 0.234375 -1.28125 C 0.234375 -1.539062 0.28125 -1.769531 0.375 -1.96875 C 0.476562 -2.175781 0.613281 -2.335938 0.78125 -2.453125 C 0.957031 -2.566406 1.15625 -2.625 1.375 -2.625 C 1.53125 -2.625 1.671875 -2.597656 1.796875 -2.546875 C 1.929688 -2.492188 2.050781 -2.410156 2.15625 -2.296875 C 2.257812 -2.191406 2.34375 -2.054688 2.40625 -1.890625 C 2.46875 -1.734375 2.5 -1.546875 2.5 -1.328125 L 2.5 -1.203125 L 0.4375 -1.203125 L 0.4375 -1.46875 L 2.328125 -1.46875 L 2.1875 -1.375 C 2.1875 -1.5625 2.148438 -1.726562 2.078125 -1.875 C 2.015625 -2.019531 1.921875 -2.132812 1.796875 -2.21875 C 1.679688 -2.300781 1.539062 -2.34375 1.375 -2.34375 C 1.21875 -2.34375 1.078125 -2.296875 0.953125 -2.203125 C 0.828125 -2.117188 0.726562 -2.003906 0.65625 -1.859375 C 0.59375 -1.722656 0.5625 -1.566406 0.5625 -1.390625 L 0.5625 -1.234375 C 0.5625 -1.035156 0.59375 -0.859375 0.65625 -0.703125 C 0.726562 -0.554688 0.828125 -0.441406 0.953125 -0.359375 C 1.085938 -0.273438 1.242188 -0.234375 1.421875 -0.234375 C 1.546875 -0.234375 1.65625 -0.25 1.75 -0.28125 C 1.84375 -0.320312 1.921875 -0.375 1.984375 -0.4375 C 2.054688 -0.507812 2.109375 -0.585938 2.140625 -0.671875 L 2.4375 -0.59375 C 2.394531 -0.476562 2.328125 -0.367188 2.234375 -0.265625 C 2.140625 -0.171875 2.023438 -0.09375 1.890625 -0.03125 C 1.753906 0.0195312 1.597656 0.046875 1.421875 0.046875 Z M 1.421875 0.046875 "/></g></g></g><g fill="#4a4a4a" fill-opacity="1"><g transform="translate(13.160701, 4.992335)"><g/></g></g><g fill="#4a4a4a" fill-opacity="1"><g transform="translate(14.465966, 4.992335)"><g><path d="M 0.3125 0.953125 L 0.390625 0.671875 L 0.46875 0.6875 C 0.550781 0.707031 0.625 0.707031 0.6875 0.6875 C 0.757812 0.675781 0.820312 0.640625 0.875 0.578125 C 0.9375 0.523438 0.988281 0.441406 1.03125 0.328125 L 1.140625 0.015625 L 0.140625 -2.578125 L 0.484375 -2.578125 L 1.078125 -0.96875 C 1.140625 -0.820312 1.191406 -0.675781 1.234375 -0.53125 C 1.273438 -0.394531 1.316406 -0.257812 1.359375 -0.125 L 1.25 -0.125 C 1.289062 -0.257812 1.332031 -0.394531 1.375 -0.53125 C 1.425781 -0.675781 1.476562 -0.820312 1.53125 -0.96875 L 2.125 -2.578125 L 2.46875 -2.578125 L 1.296875 0.4375 C 1.253906 0.5625 1.195312 0.664062 1.125 0.75 C 1.0625 0.832031 0.984375 0.894531 0.890625 0.9375 C 0.804688 0.976562 0.710938 1 0.609375 1 C 0.546875 1 0.488281 0.992188 0.4375 0.984375 C 0.394531 0.972656 0.351562 0.960938 0.3125 0.953125 Z M 0.3125 0.953125 "/></g></g></g><g fill="#4a4a4a" fill-opacity="1"><g transform="translate(16.985083, 4.992335)"><g><path d="M 1.390625 0.046875 C 1.160156 0.046875 0.957031 -0.00390625 0.78125 -0.109375 C 0.613281 -0.222656 0.476562 -0.378906 0.375 -0.578125 C 0.28125 -0.785156 0.234375 -1.019531 0.234375 -1.28125 C 0.234375 -1.539062 0.28125 -1.769531 0.375 -1.96875 C 0.476562 -2.175781 0.613281 -2.335938 0.78125 -2.453125 C 0.957031 -2.566406 1.160156 -2.625 1.390625 -2.625 C 1.617188 -2.625 1.816406 -2.566406 1.984375 -2.453125 C 2.160156 -2.335938 2.296875 -2.175781 2.390625 -1.96875 C 2.492188 -1.769531 2.546875 -1.539062 2.546875 -1.28125 C 2.546875 -1.019531 2.492188 -0.785156 2.390625 -0.578125 C 2.296875 -0.378906 2.160156 -0.222656 1.984375 -0.109375 C 1.816406 -0.00390625 1.617188 0.046875 1.390625 0.046875 Z M 1.390625 -0.234375 C 1.566406 -0.234375 1.71875 -0.28125 1.84375 -0.375 C 1.96875 -0.46875 2.0625 -0.59375 2.125 -0.75 C 2.195312 -0.90625 2.234375 -1.082031 2.234375 -1.28125 C 2.234375 -1.476562 2.195312 -1.65625 2.125 -1.8125 C 2.0625 -1.976562 1.96875 -2.109375 1.84375 -2.203125 C 1.71875 -2.296875 1.566406 -2.34375 1.390625 -2.34375 C 1.210938 -2.34375 1.0625 -2.289062 0.9375 -2.1875 C 0.8125 -2.09375 0.71875 -1.96875 0.65625 -1.8125 C 0.59375 -1.65625 0.5625 -1.476562 0.5625 -1.28125 C 0.5625 -1.082031 0.59375 -0.90625 0.65625 -0.75 C 0.71875 -0.59375 0.8125 -0.46875 0.9375 -0.375 C 1.0625 -0.28125 1.210938 -0.234375 1.390625 -0.234375 Z M 1.390625 -0.234375 "/></g></g></g><g fill="#4a4a4a" fill-opacity="1"><g transform="translate(19.771367, 4.992335)"><g><path d="M 1.28125 0.03125 C 1.101562 0.03125 0.945312 -0.00390625 0.8125 -0.078125 C 0.675781 -0.148438 0.566406 -0.253906 0.484375 -0.390625 C 0.410156 -0.535156 0.375 -0.710938 0.375 -0.921875 L 0.375 -2.578125 L 0.6875 -2.578125 L 0.6875 -0.9375 C 0.6875 -0.726562 0.742188 -0.5625 0.859375 -0.4375 C 0.984375 -0.3125 1.148438 -0.25 1.359375 -0.25 C 1.492188 -0.25 1.613281 -0.273438 1.71875 -0.328125 C 1.832031 -0.390625 1.921875 -0.472656 1.984375 -0.578125 C 2.046875 -0.691406 2.078125 -0.828125 2.078125 -0.984375 L 2.078125 -2.578125 L 2.390625 -2.578125 L 2.390625 0 L 2.09375 0 L 2.09375 -0.609375 L 2.140625 -0.609375 C 2.066406 -0.378906 1.953125 -0.210938 1.796875 -0.109375 C 1.648438 -0.015625 1.476562 0.03125 1.28125 0.03125 Z M 1.28125 0.03125 "/></g></g></g><g fill="#4a4a4a" fill-opacity="1"><g transform="translate(22.543588, 4.992335)"><g><path d="M 0.375 0 L 0.375 -2.578125 L 0.6875 -2.578125 L 0.6875 -2.171875 L 0.703125 -2.171875 C 0.753906 -2.304688 0.84375 -2.414062 0.96875 -2.5 C 1.09375 -2.582031 1.238281 -2.625 1.40625 -2.625 C 1.425781 -2.625 1.453125 -2.617188 1.484375 -2.609375 C 1.515625 -2.609375 1.539062 -2.609375 1.5625 -2.609375 L 1.5625 -2.296875 C 1.550781 -2.304688 1.523438 -2.3125 1.484375 -2.3125 C 1.453125 -2.3125 1.414062 -2.3125 1.375 -2.3125 C 1.238281 -2.3125 1.117188 -2.28125 1.015625 -2.21875 C 0.921875 -2.164062 0.84375 -2.085938 0.78125 -1.984375 C 0.71875 -1.890625 0.6875 -1.78125 0.6875 -1.65625 L 0.6875 0 Z M 0.375 0 "/></g></g></g><g fill="#4a4a4a" fill-opacity="1"><g transform="translate(24.207393, 4.992335)"><g/></g></g><g fill="#4a4a4a" fill-opacity="1"><g transform="translate(25.512657, 4.992335)"><g><path d="M 0.6875 -1.609375 L 0.6875 0 L 0.375 0 L 0.375 -3.484375 L 0.6875 -3.484375 L 0.6875 -1.984375 L 0.625 -1.984375 C 0.695312 -2.203125 0.804688 -2.363281 0.953125 -2.46875 C 1.109375 -2.570312 1.285156 -2.625 1.484375 -2.625 C 1.660156 -2.625 1.816406 -2.585938 1.953125 -2.515625 C 2.085938 -2.441406 2.191406 -2.332031 2.265625 -2.1875 C 2.347656 -2.050781 2.390625 -1.878906 2.390625 -1.671875 L 2.390625 0 L 2.078125 0 L 2.078125 -1.640625 C 2.078125 -1.859375 2.015625 -2.023438 1.890625 -2.140625 C 1.773438 -2.265625 1.617188 -2.328125 1.421875 -2.328125 C 1.273438 -2.328125 1.148438 -2.296875 1.046875 -2.234375 C 0.941406 -2.179688 0.851562 -2.097656 0.78125 -1.984375 C 0.71875 -1.878906 0.6875 -1.753906 0.6875 -1.609375 Z M 0.6875 -1.609375 "/></g></g></g><g fill="#4a4a4a" fill-opacity="1"><g transform="translate(28.284881, 4.992335)"><g><path d="M 1.390625 0.046875 C 1.160156 0.046875 0.957031 -0.00390625 0.78125 -0.109375 C 0.613281 -0.222656 0.476562 -0.378906 0.375 -0.578125 C 0.28125 -0.785156 0.234375 -1.019531 0.234375 -1.28125 C 0.234375 -1.539062 0.28125 -1.769531 0.375 -1.96875 C 0.476562 -2.175781 0.613281 -2.335938 0.78125 -2.453125 C 0.957031 -2.566406 1.160156 -2.625 1.390625 -2.625 C 1.617188 -2.625 1.816406 -2.566406 1.984375 -2.453125 C 2.160156 -2.335938 2.296875 -2.175781 2.390625 -1.96875 C 2.492188 -1.769531 2.546875 -1.539062 2.546875 -1.28125 C 2.546875 -1.019531 2.492188 -0.785156 2.390625 -0.578125 C 2.296875 -0.378906 2.160156 -0.222656 1.984375 -0.109375 C 1.816406 -0.00390625 1.617188 0.046875 1.390625 0.046875 Z M 1.390625 -0.234375 C 1.566406 -0.234375 1.71875 -0.28125 1.84375 -0.375 C 1.96875 -0.46875 2.0625 -0.59375 2.125 -0.75 C 2.195312 -0.90625 2.234375 -1.082031 2.234375 -1.28125 C 2.234375 -1.476562 2.195312 -1.65625 2.125 -1.8125 C 2.0625 -1.976562 1.96875 -2.109375 1.84375 -2.203125 C 1.71875 -2.296875 1.566406 -2.34375 1.390625 -2.34375 C 1.210938 -2.34375 1.0625 -2.289062 0.9375 -2.1875 C 0.8125 -2.09375 0.71875 -1.96875 0.65625 -1.8125 C 0.59375 -1.65625 0.5625 -1.476562 0.5625 -1.28125 C 0.5625 -1.082031 0.59375 -0.90625 0.65625 -0.75 C 0.71875 -0.59375 0.8125 -0.46875 0.9375 -0.375 C 1.0625 -0.28125 1.210938 -0.234375 1.390625 -0.234375 Z M 1.390625 -0.234375 "/></g></g></g><g fill="#4a4a4a" fill-opacity="1"><g transform="translate(31.071163, 4.992335)"><g><path d="M 1.28125 -2.578125 L 1.28125 -2.3125 L 0.03125 -2.3125 L 0.03125 -2.578125 Z M 0.4375 -3.21875 L 0.75 -3.21875 L 0.75 -0.609375 C 0.75 -0.484375 0.773438 -0.390625 0.828125 -0.328125 C 0.878906 -0.273438 0.96875 -0.253906 1.09375 -0.265625 C 1.113281 -0.265625 1.140625 -0.265625 1.171875 -0.265625 C 1.203125 -0.273438 1.234375 -0.28125 1.265625 -0.28125 L 1.3125 -0.015625 C 1.28125 -0.00390625 1.242188 0 1.203125 0 C 1.160156 0.0078125 1.117188 0.015625 1.078125 0.015625 C 0.867188 0.0234375 0.707031 -0.0195312 0.59375 -0.125 C 0.488281 -0.226562 0.4375 -0.378906 0.4375 -0.578125 Z M 0.4375 -3.21875 "/></g></g></g><g fill="#4a4a4a" fill-opacity="1"><g transform="translate(32.446721, 4.992335)"><g><path d="M 1.421875 0.046875 C 1.179688 0.046875 0.972656 -0.00390625 0.796875 -0.109375 C 0.617188 -0.222656 0.476562 -0.378906 0.375 -0.578125 C 0.28125 -0.785156 0.234375 -1.019531 0.234375 -1.28125 C 0.234375 -1.539062 0.28125 -1.769531 0.375 -1.96875 C 0.476562 -2.175781 0.613281 -2.335938 0.78125 -2.453125 C 0.957031 -2.566406 1.15625 -2.625 1.375 -2.625 C 1.53125 -2.625 1.671875 -2.597656 1.796875 -2.546875 C 1.929688 -2.492188 2.050781 -2.410156 2.15625 -2.296875 C 2.257812 -2.191406 2.34375 -2.054688 2.40625 -1.890625 C 2.46875 -1.734375 2.5 -1.546875 2.5 -1.328125 L 2.5 -1.203125 L 0.4375 -1.203125 L 0.4375 -1.46875 L 2.328125 -1.46875 L 2.1875 -1.375 C 2.1875 -1.5625 2.148438 -1.726562 2.078125 -1.875 C 2.015625 -2.019531 1.921875 -2.132812 1.796875 -2.21875 C 1.679688 -2.300781 1.539062 -2.34375 1.375 -2.34375 C 1.21875 -2.34375 1.078125 -2.296875 0.953125 -2.203125 C 0.828125 -2.117188 0.726562 -2.003906 0.65625 -1.859375 C 0.59375 -1.722656 0.5625 -1.566406 0.5625 -1.390625 L 0.5625 -1.234375 C 0.5625 -1.035156 0.59375 -0.859375 0.65625 -0.703125 C 0.726562 -0.554688 0.828125 -0.441406 0.953125 -0.359375 C 1.085938 -0.273438 1.242188 -0.234375 1.421875 -0.234375 C 1.546875 -0.234375 1.65625 -0.25 1.75 -0.28125 C 1.84375 -0.320312 1.921875 -0.375 1.984375 -0.4375 C 2.054688 -0.507812 2.109375 -0.585938 2.140625 -0.671875 L 2.4375 -0.59375 C 2.394531 -0.476562 2.328125 -0.367188 2.234375 -0.265625 C 2.140625 -0.171875 2.023438 -0.09375 1.890625 -0.03125 C 1.753906 0.0195312 1.597656 0.046875 1.421875 0.046875 Z M 1.421875 0.046875 "/></g></g></g><g fill="#4a4a4a" fill-opacity="1"><g transform="translate(35.172078, 4.992335)"><g><path d="M 0.6875 -3.484375 L 0.6875 0 L 0.375 0 L 0.375 -3.484375 Z M 0.6875 -3.484375 "/></g></g></g><g fill="#4a4a4a" fill-opacity="1"><g transform="translate(36.245345, 4.992335)"><g/></g></g><g fill="#4a4a4a" fill-opacity="1"><g transform="translate(37.550611, 4.992335)"><g><path d="M 0.375 0 L 0.375 -2.578125 L 0.6875 -2.578125 L 0.6875 0 Z M 0.546875 -3.078125 C 0.484375 -3.078125 0.425781 -3.097656 0.375 -3.140625 C 0.332031 -3.191406 0.3125 -3.25 0.3125 -3.3125 C 0.3125 -3.363281 0.332031 -3.410156 0.375 -3.453125 C 0.425781 -3.503906 0.484375 -3.53125 0.546875 -3.53125 C 0.609375 -3.53125 0.660156 -3.503906 0.703125 -3.453125 C 0.742188 -3.410156 0.765625 -3.363281 0.765625 -3.3125 C 0.765625 -3.25 0.742188 -3.191406 0.703125 -3.140625 C 0.660156 -3.097656 0.609375 -3.078125 0.546875 -3.078125 Z M 0.546875 -3.078125 "/></g></g></g><g fill="#4a4a4a" fill-opacity="1"><g transform="translate(38.623881, 4.992335)"><g><path d="M 0.375 0 L 0.375 -2.578125 L 0.6875 -2.578125 L 0.6875 -2 L 0.65625 -2 C 0.6875 -2.144531 0.742188 -2.265625 0.828125 -2.359375 C 0.910156 -2.453125 1.003906 -2.519531 1.109375 -2.5625 C 1.210938 -2.601562 1.320312 -2.625 1.4375 -2.625 C 1.625 -2.625 1.78125 -2.566406 1.90625 -2.453125 C 2.039062 -2.335938 2.125 -2.179688 2.15625 -1.984375 L 2.09375 -1.984375 C 2.125 -2.117188 2.179688 -2.234375 2.265625 -2.328125 C 2.347656 -2.421875 2.445312 -2.492188 2.5625 -2.546875 C 2.675781 -2.597656 2.800781 -2.625 2.9375 -2.625 C 3.09375 -2.625 3.234375 -2.585938 3.359375 -2.515625 C 3.484375 -2.453125 3.582031 -2.351562 3.65625 -2.21875 C 3.726562 -2.09375 3.765625 -1.929688 3.765625 -1.734375 L 3.765625 0 L 3.453125 0 L 3.453125 -1.71875 C 3.453125 -1.9375 3.394531 -2.09375 3.28125 -2.1875 C 3.164062 -2.289062 3.023438 -2.34375 2.859375 -2.34375 C 2.734375 -2.34375 2.625 -2.316406 2.53125 -2.265625 C 2.4375 -2.210938 2.359375 -2.132812 2.296875 -2.03125 C 2.242188 -1.9375 2.21875 -1.820312 2.21875 -1.6875 L 2.21875 0 L 1.90625 0 L 1.90625 -1.75 C 1.90625 -1.9375 1.851562 -2.082031 1.75 -2.1875 C 1.644531 -2.289062 1.507812 -2.34375 1.34375 -2.34375 C 1.226562 -2.34375 1.117188 -2.3125 1.015625 -2.25 C 0.921875 -2.195312 0.84375 -2.117188 0.78125 -2.015625 C 0.71875 -1.921875 0.6875 -1.800781 0.6875 -1.65625 L 0.6875 0 Z M 0.375 0 "/></g></g></g><g fill="#4a4a4a" fill-opacity="1"><g transform="translate(42.764641, 4.992335)"><g><path d="M 0.375 0.984375 L 0.375 -2.578125 L 0.6875 -2.578125 L 0.6875 -2.09375 L 0.71875 -2.09375 C 0.75 -2.175781 0.796875 -2.257812 0.859375 -2.34375 C 0.929688 -2.425781 1.019531 -2.492188 1.125 -2.546875 C 1.238281 -2.597656 1.367188 -2.625 1.515625 -2.625 C 1.734375 -2.625 1.921875 -2.566406 2.078125 -2.453125 C 2.242188 -2.335938 2.367188 -2.179688 2.453125 -1.984375 C 2.546875 -1.785156 2.59375 -1.550781 2.59375 -1.28125 C 2.59375 -1.019531 2.546875 -0.785156 2.453125 -0.578125 C 2.367188 -0.378906 2.242188 -0.222656 2.078125 -0.109375 C 1.921875 -0.00390625 1.738281 0.046875 1.53125 0.046875 C 1.375 0.046875 1.242188 0.0195312 1.140625 -0.03125 C 1.035156 -0.0820312 0.945312 -0.148438 0.875 -0.234375 C 0.800781 -0.316406 0.75 -0.398438 0.71875 -0.484375 L 0.6875 -0.484375 L 0.6875 0.984375 Z M 1.484375 -0.234375 C 1.648438 -0.234375 1.789062 -0.273438 1.90625 -0.359375 C 2.03125 -0.453125 2.125 -0.578125 2.1875 -0.734375 C 2.25 -0.898438 2.28125 -1.085938 2.28125 -1.296875 C 2.28125 -1.492188 2.25 -1.671875 2.1875 -1.828125 C 2.125 -1.984375 2.03125 -2.109375 1.90625 -2.203125 C 1.789062 -2.296875 1.648438 -2.34375 1.484375 -2.34375 C 1.316406 -2.34375 1.171875 -2.296875 1.046875 -2.203125 C 0.929688 -2.117188 0.84375 -1.992188 0.78125 -1.828125 C 0.71875 -1.671875 0.6875 -1.492188 0.6875 -1.296875 C 0.6875 -1.085938 0.71875 -0.898438 0.78125 -0.734375 C 0.84375 -0.578125 0.929688 -0.453125 1.046875 -0.359375 C 1.171875 -0.273438 1.316406 -0.234375 1.484375 -0.234375 Z M 1.484375 -0.234375 "/></g></g></g><g fill="#4a4a4a" fill-opacity="1"><g transform="translate(45.607164, 4.992335)"><g><path d="M 1.390625 0.046875 C 1.160156 0.046875 0.957031 -0.00390625 0.78125 -0.109375 C 0.613281 -0.222656 0.476562 -0.378906 0.375 -0.578125 C 0.28125 -0.785156 0.234375 -1.019531 0.234375 -1.28125 C 0.234375 -1.539062 0.28125 -1.769531 0.375 -1.96875 C 0.476562 -2.175781 0.613281 -2.335938 0.78125 -2.453125 C 0.957031 -2.566406 1.160156 -2.625 1.390625 -2.625 C 1.617188 -2.625 1.816406 -2.566406 1.984375 -2.453125 C 2.160156 -2.335938 2.296875 -2.175781 2.390625 -1.96875 C 2.492188 -1.769531 2.546875 -1.539062 2.546875 -1.28125 C 2.546875 -1.019531 2.492188 -0.785156 2.390625 -0.578125 C 2.296875 -0.378906 2.160156 -0.222656 1.984375 -0.109375 C 1.816406 -0.00390625 1.617188 0.046875 1.390625 0.046875 Z M 1.390625 -0.234375 C 1.566406 -0.234375 1.71875 -0.28125 1.84375 -0.375 C 1.96875 -0.46875 2.0625 -0.59375 2.125 -0.75 C 2.195312 -0.90625 2.234375 -1.082031 2.234375 -1.28125 C 2.234375 -1.476562 2.195312 -1.65625 2.125 -1.8125 C 2.0625 -1.976562 1.96875 -2.109375 1.84375 -2.203125 C 1.71875 -2.296875 1.566406 -2.34375 1.390625 -2.34375 C 1.210938 -2.34375 1.0625 -2.289062 0.9375 -2.1875 C 0.8125 -2.09375 0.71875 -1.96875 0.65625 -1.8125 C 0.59375 -1.65625 0.5625 -1.476562 0.5625 -1.28125 C 0.5625 -1.082031 0.59375 -0.90625 0.65625 -0.75 C 0.71875 -0.59375 0.8125 -0.46875 0.9375 -0.375 C 1.0625 -0.28125 1.210938 -0.234375 1.390625 -0.234375 Z M 1.390625 -0.234375 "/></g></g></g><g fill="#4a4a4a" fill-opacity="1"><g transform="translate(48.393447, 4.992335)"><g><path d="M 1.203125 0.046875 C 1.035156 0.046875 0.882812 0.0195312 0.75 -0.03125 C 0.613281 -0.0820312 0.503906 -0.160156 0.421875 -0.265625 C 0.335938 -0.367188 0.28125 -0.5 0.25 -0.65625 L 0.5625 -0.703125 C 0.59375 -0.546875 0.660156 -0.425781 0.765625 -0.34375 C 0.878906 -0.257812 1.023438 -0.21875 1.203125 -0.21875 C 1.398438 -0.21875 1.554688 -0.257812 1.671875 -0.34375 C 1.796875 -0.4375 1.859375 -0.550781 1.859375 -0.6875 C 1.859375 -0.789062 1.820312 -0.875 1.75 -0.9375 C 1.675781 -1.007812 1.566406 -1.0625 1.421875 -1.09375 L 1 -1.203125 C 0.78125 -1.253906 0.613281 -1.335938 0.5 -1.453125 C 0.382812 -1.566406 0.328125 -1.710938 0.328125 -1.890625 C 0.328125 -2.035156 0.363281 -2.160156 0.4375 -2.265625 C 0.519531 -2.378906 0.628906 -2.46875 0.765625 -2.53125 C 0.910156 -2.59375 1.066406 -2.625 1.234375 -2.625 C 1.398438 -2.625 1.546875 -2.597656 1.671875 -2.546875 C 1.796875 -2.492188 1.894531 -2.414062 1.96875 -2.3125 C 2.050781 -2.21875 2.109375 -2.101562 2.140625 -1.96875 L 1.84375 -1.90625 C 1.8125 -2.039062 1.742188 -2.148438 1.640625 -2.234375 C 1.546875 -2.316406 1.410156 -2.359375 1.234375 -2.359375 C 1.066406 -2.359375 0.925781 -2.3125 0.8125 -2.21875 C 0.707031 -2.132812 0.65625 -2.03125 0.65625 -1.90625 C 0.65625 -1.789062 0.691406 -1.695312 0.765625 -1.625 C 0.835938 -1.5625 0.953125 -1.515625 1.109375 -1.484375 L 1.515625 -1.375 C 1.734375 -1.320312 1.894531 -1.238281 2 -1.125 C 2.113281 -1.019531 2.171875 -0.878906 2.171875 -0.703125 C 2.171875 -0.554688 2.128906 -0.425781 2.046875 -0.3125 C 1.972656 -0.195312 1.863281 -0.109375 1.71875 -0.046875 C 1.570312 0.015625 1.398438 0.046875 1.203125 0.046875 Z M 1.203125 0.046875 "/></g></g></g><g fill="#4a4a4a" fill-opacity="1"><g transform="translate(50.816507, 4.992335)"><g><path d="M 1.203125 0.046875 C 1.035156 0.046875 0.882812 0.0195312 0.75 -0.03125 C 0.613281 -0.0820312 0.503906 -0.160156 0.421875 -0.265625 C 0.335938 -0.367188 0.28125 -0.5 0.25 -0.65625 L 0.5625 -0.703125 C 0.59375 -0.546875 0.660156 -0.425781 0.765625 -0.34375 C 0.878906 -0.257812 1.023438 -0.21875 1.203125 -0.21875 C 1.398438 -0.21875 1.554688 -0.257812 1.671875 -0.34375 C 1.796875 -0.4375 1.859375 -0.550781 1.859375 -0.6875 C 1.859375 -0.789062 1.820312 -0.875 1.75 -0.9375 C 1.675781 -1.007812 1.566406 -1.0625 1.421875 -1.09375 L 1 -1.203125 C 0.78125 -1.253906 0.613281 -1.335938 0.5 -1.453125 C 0.382812 -1.566406 0.328125 -1.710938 0.328125 -1.890625 C 0.328125 -2.035156 0.363281 -2.160156 0.4375 -2.265625 C 0.519531 -2.378906 0.628906 -2.46875 0.765625 -2.53125 C 0.910156 -2.59375 1.066406 -2.625 1.234375 -2.625 C 1.398438 -2.625 1.546875 -2.597656 1.671875 -2.546875 C 1.796875 -2.492188 1.894531 -2.414062 1.96875 -2.3125 C 2.050781 -2.21875 2.109375 -2.101562 2.140625 -1.96875 L 1.84375 -1.90625 C 1.8125 -2.039062 1.742188 -2.148438 1.640625 -2.234375 C 1.546875 -2.316406 1.410156 -2.359375 1.234375 -2.359375 C 1.066406 -2.359375 0.925781 -2.3125 0.8125 -2.21875 C 0.707031 -2.132812 0.65625 -2.03125 0.65625 -1.90625 C 0.65625 -1.789062 0.691406 -1.695312 0.765625 -1.625 C 0.835938 -1.5625 0.953125 -1.515625 1.109375 -1.484375 L 1.515625 -1.375 C 1.734375 -1.320312 1.894531 -1.238281 2 -1.125 C 2.113281 -1.019531 2.171875 -0.878906 2.171875 -0.703125 C 2.171875 -0.554688 2.128906 -0.425781 2.046875 -0.3125 C 1.972656 -0.195312 1.863281 -0.109375 1.71875 -0.046875 C 1.570312 0.015625 1.398438 0.046875 1.203125 0.046875 Z M 1.203125 0.046875 "/></g></g></g><g fill="#4a4a4a" fill-opacity="1"><g transform="translate(53.239564, 4.992335)"><g><path d="M 0.375 0 L 0.375 -2.578125 L 0.6875 -2.578125 L 0.6875 0 Z M 0.546875 -3.078125 C 0.484375 -3.078125 0.425781 -3.097656 0.375 -3.140625 C 0.332031 -3.191406 0.3125 -3.25 0.3125 -3.3125 C 0.3125 -3.363281 0.332031 -3.410156 0.375 -3.453125 C 0.425781 -3.503906 0.484375 -3.53125 0.546875 -3.53125 C 0.609375 -3.53125 0.660156 -3.503906 0.703125 -3.453125 C 0.742188 -3.410156 0.765625 -3.363281 0.765625 -3.3125 C 0.765625 -3.25 0.742188 -3.191406 0.703125 -3.140625 C 0.660156 -3.097656 0.609375 -3.078125 0.546875 -3.078125 Z M 0.546875 -3.078125 "/></g></g></g><g fill="#4a4a4a" fill-opacity="1"><g transform="translate(54.312836, 4.992335)"><g><path d="M 1.53125 0.046875 C 1.375 0.046875 1.242188 0.0195312 1.140625 -0.03125 C 1.035156 -0.0820312 0.945312 -0.148438 0.875 -0.234375 C 0.800781 -0.316406 0.75 -0.398438 0.71875 -0.484375 L 0.6875 -0.484375 L 0.6875 0 L 0.375 0 L 0.375 -3.484375 L 0.6875 -3.484375 L 0.6875 -2.09375 L 0.71875 -2.09375 C 0.75 -2.175781 0.800781 -2.257812 0.875 -2.34375 C 0.945312 -2.425781 1.035156 -2.492188 1.140625 -2.546875 C 1.242188 -2.597656 1.367188 -2.625 1.515625 -2.625 C 1.734375 -2.625 1.921875 -2.566406 2.078125 -2.453125 C 2.242188 -2.335938 2.367188 -2.179688 2.453125 -1.984375 C 2.546875 -1.785156 2.59375 -1.550781 2.59375 -1.28125 C 2.59375 -1.019531 2.546875 -0.785156 2.453125 -0.578125 C 2.367188 -0.378906 2.242188 -0.222656 2.078125 -0.109375 C 1.921875 -0.00390625 1.738281 0.046875 1.53125 0.046875 Z M 1.484375 -0.234375 C 1.648438 -0.234375 1.789062 -0.273438 1.90625 -0.359375 C 2.03125 -0.453125 2.125 -0.578125 2.1875 -0.734375 C 2.25 -0.898438 2.28125 -1.085938 2.28125 -1.296875 C 2.28125 -1.492188 2.25 -1.671875 2.1875 -1.828125 C 2.125 -1.984375 2.03125 -2.109375 1.90625 -2.203125 C 1.789062 -2.296875 1.648438 -2.34375 1.484375 -2.34375 C 1.316406 -2.34375 1.171875 -2.296875 1.046875 -2.203125 C 0.929688 -2.117188 0.84375 -1.992188 0.78125 -1.828125 C 0.71875 -1.671875 0.6875 -1.492188 0.6875 -1.296875 C 0.6875 -1.085938 0.71875 -0.898438 0.78125 -0.734375 C 0.84375 -0.578125 0.929688 -0.453125 1.046875 -0.359375 C 1.171875 -0.273438 1.316406 -0.234375 1.484375 -0.234375 Z M 1.484375 -0.234375 "/></g></g></g><g fill="#4a4a4a" fill-opacity="1"><g transform="translate(57.155359, 4.992335)"><g><path d="M 0.6875 -3.484375 L 0.6875 0 L 0.375 0 L 0.375 -3.484375 Z M 0.6875 -3.484375 "/></g></g></g><g fill="#4a4a4a" fill-opacity="1"><g transform="translate(58.228631, 4.992335)"><g><path d="M 1.421875 0.046875 C 1.179688 0.046875 0.972656 -0.00390625 0.796875 -0.109375 C 0.617188 -0.222656 0.476562 -0.378906 0.375 -0.578125 C 0.28125 -0.785156 0.234375 -1.019531 0.234375 -1.28125 C 0.234375 -1.539062 0.28125 -1.769531 0.375 -1.96875 C 0.476562 -2.175781 0.613281 -2.335938 0.78125 -2.453125 C 0.957031 -2.566406 1.15625 -2.625 1.375 -2.625 C 1.53125 -2.625 1.671875 -2.597656 1.796875 -2.546875 C 1.929688 -2.492188 2.050781 -2.410156 2.15625 -2.296875 C 2.257812 -2.191406 2.34375 -2.054688 2.40625 -1.890625 C 2.46875 -1.734375 2.5 -1.546875 2.5 -1.328125 L 2.5 -1.203125 L 0.4375 -1.203125 L 0.4375 -1.46875 L 2.328125 -1.46875 L 2.1875 -1.375 C 2.1875 -1.5625 2.148438 -1.726562 2.078125 -1.875 C 2.015625 -2.019531 1.921875 -2.132812 1.796875 -2.21875 C 1.679688 -2.300781 1.539062 -2.34375 1.375 -2.34375 C 1.21875 -2.34375 1.078125 -2.296875 0.953125 -2.203125 C 0.828125 -2.117188 0.726562 -2.003906 0.65625 -1.859375 C 0.59375 -1.722656 0.5625 -1.566406 0.5625 -1.390625 L 0.5625 -1.234375 C 0.5625 -1.035156 0.59375 -0.859375 0.65625 -0.703125 C 0.726562 -0.554688 0.828125 -0.441406 0.953125 -0.359375 C 1.085938 -0.273438 1.242188 -0.234375 1.421875 -0.234375 C 1.546875 -0.234375 1.65625 -0.25 1.75 -0.28125 C 1.84375 -0.320312 1.921875 -0.375 1.984375 -0.4375 C 2.054688 -0.507812 2.109375 -0.585938 2.140625 -0.671875 L 2.4375 -0.59375 C 2.394531 -0.476562 2.328125 -0.367188 2.234375 -0.265625 C 2.140625 -0.171875 2.023438 -0.09375 1.890625 -0.03125 C 1.753906 0.0195312 1.597656 0.046875 1.421875 0.046875 Z M 1.421875 0.046875 "/></g></g></g><g fill="#4a4a4a" fill-opacity="1"><g transform="translate(60.953983, 4.992335)"><g/></g></g><g fill="#4a4a4a" fill-opacity="1"><g transform="translate(62.259251, 4.992335)"><g><path d="M 1.28125 -2.578125 L 1.28125 -2.3125 L 0.03125 -2.3125 L 0.03125 -2.578125 Z M 0.4375 -3.21875 L 0.75 -3.21875 L 0.75 -0.609375 C 0.75 -0.484375 0.773438 -0.390625 0.828125 -0.328125 C 0.878906 -0.273438 0.96875 -0.253906 1.09375 -0.265625 C 1.113281 -0.265625 1.140625 -0.265625 1.171875 -0.265625 C 1.203125 -0.273438 1.234375 -0.28125 1.265625 -0.28125 L 1.3125 -0.015625 C 1.28125 -0.00390625 1.242188 0 1.203125 0 C 1.160156 0.0078125 1.117188 0.015625 1.078125 0.015625 C 0.867188 0.0234375 0.707031 -0.0195312 0.59375 -0.125 C 0.488281 -0.226562 0.4375 -0.378906 0.4375 -0.578125 Z M 0.4375 -3.21875 "/></g></g></g><g fill="#4a4a4a" fill-opacity="1"><g transform="translate(63.63481, 4.992335)"><g><path d="M 1.390625 0.046875 C 1.160156 0.046875 0.957031 -0.00390625 0.78125 -0.109375 C 0.613281 -0.222656 0.476562 -0.378906 0.375 -0.578125 C 0.28125 -0.785156 0.234375 -1.019531 0.234375 -1.28125 C 0.234375 -1.539062 0.28125 -1.769531 0.375 -1.96875 C 0.476562 -2.175781 0.613281 -2.335938 0.78125 -2.453125 C 0.957031 -2.566406 1.160156 -2.625 1.390625 -2.625 C 1.617188 -2.625 1.816406 -2.566406 1.984375 -2.453125 C 2.160156 -2.335938 2.296875 -2.175781 2.390625 -1.96875 C 2.492188 -1.769531 2.546875 -1.539062 2.546875 -1.28125 C 2.546875 -1.019531 2.492188 -0.785156 2.390625 -0.578125 C 2.296875 -0.378906 2.160156 -0.222656 1.984375 -0.109375 C 1.816406 -0.00390625 1.617188 0.046875 1.390625 0.046875 Z M 1.390625 -0.234375 C 1.566406 -0.234375 1.71875 -0.28125 1.84375 -0.375 C 1.96875 -0.46875 2.0625 -0.59375 2.125 -0.75 C 2.195312 -0.90625 2.234375 -1.082031 2.234375 -1.28125 C 2.234375 -1.476562 2.195312 -1.65625 2.125 -1.8125 C 2.0625 -1.976562 1.96875 -2.109375 1.84375 -2.203125 C 1.71875 -2.296875 1.566406 -2.34375 1.390625 -2.34375 C 1.210938 -2.34375 1.0625 -2.289062 0.9375 -2.1875 C 0.8125 -2.09375 0.71875 -1.96875 0.65625 -1.8125 C 0.59375 -1.65625 0.5625 -1.476562 0.5625 -1.28125 C 0.5625 -1.082031 0.59375 -0.90625 0.65625 -0.75 C 0.71875 -0.59375 0.8125 -0.46875 0.9375 -0.375 C 1.0625 -0.28125 1.210938 -0.234375 1.390625 -0.234375 Z M 1.390625 -0.234375 "/></g></g></g><g fill="#4a4a4a" fill-opacity="1"><g transform="translate(66.421092, 4.992335)"><g/></g></g><g fill="#4a4a4a" fill-opacity="1"><g transform="translate(67.726356, 4.992335)"><g><path d="M 0.375 0 L 0.375 -2.578125 L 0.6875 -2.578125 L 0.6875 0 Z M 0.546875 -3.078125 C 0.484375 -3.078125 0.425781 -3.097656 0.375 -3.140625 C 0.332031 -3.191406 0.3125 -3.25 0.3125 -3.3125 C 0.3125 -3.363281 0.332031 -3.410156 0.375 -3.453125 C 0.425781 -3.503906 0.484375 -3.53125 0.546875 -3.53125 C 0.609375 -3.53125 0.660156 -3.503906 0.703125 -3.453125 C 0.742188 -3.410156 0.765625 -3.363281 0.765625 -3.3125 C 0.765625 -3.25 0.742188 -3.191406 0.703125 -3.140625 C 0.660156 -3.097656 0.609375 -3.078125 0.546875 -3.078125 Z M 0.546875 -3.078125 "/></g></g></g><g clip-path="url(#5c68b8e97a)"><g fill="#4a4a4a" fill-opacity="1"><g transform="translate(68.799623, 4.992335)"><g><path d="M 1.375 1.03125 C 1.195312 1.03125 1.039062 1.003906 0.90625 0.953125 C 0.769531 0.910156 0.65625 0.84375 0.5625 0.75 C 0.46875 0.664062 0.398438 0.566406 0.359375 0.453125 L 0.625 0.328125 C 0.664062 0.398438 0.71875 0.46875 0.78125 0.53125 C 0.84375 0.59375 0.921875 0.644531 1.015625 0.6875 C 1.117188 0.726562 1.238281 0.75 1.375 0.75 C 1.613281 0.75 1.800781 0.6875 1.9375 0.5625 C 2.082031 0.445312 2.15625 0.269531 2.15625 0.03125 L 2.15625 -0.515625 L 2.125 -0.515625 C 2.082031 -0.429688 2.023438 -0.347656 1.953125 -0.265625 C 1.890625 -0.191406 1.804688 -0.128906 1.703125 -0.078125 C 1.597656 -0.0351562 1.46875 -0.015625 1.3125 -0.015625 C 1.101562 -0.015625 0.914062 -0.0664062 0.75 -0.171875 C 0.59375 -0.273438 0.46875 -0.421875 0.375 -0.609375 C 0.28125 -0.804688 0.234375 -1.035156 0.234375 -1.296875 C 0.234375 -1.554688 0.28125 -1.785156 0.375 -1.984375 C 0.46875 -2.191406 0.59375 -2.347656 0.75 -2.453125 C 0.914062 -2.566406 1.109375 -2.625 1.328125 -2.625 C 1.472656 -2.625 1.597656 -2.597656 1.703125 -2.546875 C 1.816406 -2.492188 1.90625 -2.425781 1.96875 -2.34375 C 2.039062 -2.257812 2.097656 -2.175781 2.140625 -2.09375 L 2.15625 -2.09375 L 2.15625 -2.578125 L 2.46875 -2.578125 L 2.46875 0.046875 C 2.46875 0.273438 2.421875 0.457031 2.328125 0.59375 C 2.234375 0.738281 2.101562 0.847656 1.9375 0.921875 C 1.769531 0.992188 1.582031 1.03125 1.375 1.03125 Z M 1.359375 -0.296875 C 1.523438 -0.296875 1.664062 -0.332031 1.78125 -0.40625 C 1.90625 -0.488281 2 -0.601562 2.0625 -0.75 C 2.125 -0.90625 2.15625 -1.085938 2.15625 -1.296875 C 2.15625 -1.503906 2.125 -1.6875 2.0625 -1.84375 C 2 -2 1.90625 -2.117188 1.78125 -2.203125 C 1.664062 -2.296875 1.523438 -2.34375 1.359375 -2.34375 C 1.191406 -2.34375 1.046875 -2.296875 0.921875 -2.203125 C 0.804688 -2.109375 0.71875 -1.984375 0.65625 -1.828125 C 0.59375 -1.679688 0.5625 -1.503906 0.5625 -1.296875 C 0.5625 -1.097656 0.59375 -0.921875 0.65625 -0.765625 C 0.71875 -0.617188 0.804688 -0.503906 0.921875 -0.421875 C 1.046875 -0.335938 1.191406 -0.296875 1.359375 -0.296875 Z M 1.359375 -0.296875 "/></g></g></g></g><g fill="#4a4a4a" fill-opacity="1"><g transform="translate(71.644493, 4.992335)"><g><path d="M 0.6875 -1.609375 L 0.6875 0 L 0.375 0 L 0.375 -2.578125 L 0.6875 -2.578125 L 0.6875 -1.984375 L 0.625 -1.984375 C 0.695312 -2.203125 0.804688 -2.363281 0.953125 -2.46875 C 1.109375 -2.570312 1.285156 -2.625 1.484375 -2.625 C 1.660156 -2.625 1.816406 -2.585938 1.953125 -2.515625 C 2.085938 -2.441406 2.191406 -2.332031 2.265625 -2.1875 C 2.347656 -2.050781 2.390625 -1.878906 2.390625 -1.671875 L 2.390625 0 L 2.078125 0 L 2.078125 -1.640625 C 2.078125 -1.859375 2.015625 -2.023438 1.890625 -2.140625 C 1.773438 -2.265625 1.617188 -2.328125 1.421875 -2.328125 C 1.273438 -2.328125 1.148438 -2.296875 1.046875 -2.234375 C 0.941406 -2.179688 0.851562 -2.097656 0.78125 -1.984375 C 0.71875 -1.878906 0.6875 -1.753906 0.6875 -1.609375 Z M 0.6875 -1.609375 "/></g></g></g><g fill="#4a4a4a" fill-opacity="1"><g transform="translate(74.416717, 4.992335)"><g><path d="M 1.390625 0.046875 C 1.160156 0.046875 0.957031 -0.00390625 0.78125 -0.109375 C 0.613281 -0.222656 0.476562 -0.378906 0.375 -0.578125 C 0.28125 -0.785156 0.234375 -1.019531 0.234375 -1.28125 C 0.234375 -1.539062 0.28125 -1.769531 0.375 -1.96875 C 0.476562 -2.175781 0.613281 -2.335938 0.78125 -2.453125 C 0.957031 -2.566406 1.160156 -2.625 1.390625 -2.625 C 1.617188 -2.625 1.816406 -2.566406 1.984375 -2.453125 C 2.160156 -2.335938 2.296875 -2.175781 2.390625 -1.96875 C 2.492188 -1.769531 2.546875 -1.539062 2.546875 -1.28125 C 2.546875 -1.019531 2.492188 -0.785156 2.390625 -0.578125 C 2.296875 -0.378906 2.160156 -0.222656 1.984375 -0.109375 C 1.816406 -0.00390625 1.617188 0.046875 1.390625 0.046875 Z M 1.390625 -0.234375 C 1.566406 -0.234375 1.71875 -0.28125 1.84375 -0.375 C 1.96875 -0.46875 2.0625 -0.59375 2.125 -0.75 C 2.195312 -0.90625 2.234375 -1.082031 2.234375 -1.28125 C 2.234375 -1.476562 2.195312 -1.65625 2.125 -1.8125 C 2.0625 -1.976562 1.96875 -2.109375 1.84375 -2.203125 C 1.71875 -2.296875 1.566406 -2.34375 1.390625 -2.34375 C 1.210938 -2.34375 1.0625 -2.289062 0.9375 -2.1875 C 0.8125 -2.09375 0.71875 -1.96875 0.65625 -1.8125 C 0.59375 -1.65625 0.5625 -1.476562 0.5625 -1.28125 C 0.5625 -1.082031 0.59375 -0.90625 0.65625 -0.75 C 0.71875 -0.59375 0.8125 -0.46875 0.9375 -0.375 C 1.0625 -0.28125 1.210938 -0.234375 1.390625 -0.234375 Z M 1.390625 -0.234375 "/></g></g></g><g fill="#4a4a4a" fill-opacity="1"><g transform="translate(77.203004, 4.992335)"><g><path d="M 0.375 0 L 0.375 -2.578125 L 0.6875 -2.578125 L 0.6875 -2.171875 L 0.703125 -2.171875 C 0.753906 -2.304688 0.84375 -2.414062 0.96875 -2.5 C 1.09375 -2.582031 1.238281 -2.625 1.40625 -2.625 C 1.425781 -2.625 1.453125 -2.617188 1.484375 -2.609375 C 1.515625 -2.609375 1.539062 -2.609375 1.5625 -2.609375 L 1.5625 -2.296875 C 1.550781 -2.304688 1.523438 -2.3125 1.484375 -2.3125 C 1.453125 -2.3125 1.414062 -2.3125 1.375 -2.3125 C 1.238281 -2.3125 1.117188 -2.28125 1.015625 -2.21875 C 0.921875 -2.164062 0.84375 -2.085938 0.78125 -1.984375 C 0.71875 -1.890625 0.6875 -1.78125 0.6875 -1.65625 L 0.6875 0 Z M 0.375 0 "/></g></g></g><g fill="#4a4a4a" fill-opacity="1"><g transform="translate(78.791802, 4.992335)"><g><path d="M 1.421875 0.046875 C 1.179688 0.046875 0.972656 -0.00390625 0.796875 -0.109375 C 0.617188 -0.222656 0.476562 -0.378906 0.375 -0.578125 C 0.28125 -0.785156 0.234375 -1.019531 0.234375 -1.28125 C 0.234375 -1.539062 0.28125 -1.769531 0.375 -1.96875 C 0.476562 -2.175781 0.613281 -2.335938 0.78125 -2.453125 C 0.957031 -2.566406 1.15625 -2.625 1.375 -2.625 C 1.53125 -2.625 1.671875 -2.597656 1.796875 -2.546875 C 1.929688 -2.492188 2.050781 -2.410156 2.15625 -2.296875 C 2.257812 -2.191406 2.34375 -2.054688 2.40625 -1.890625 C 2.46875 -1.734375 2.5 -1.546875 2.5 -1.328125 L 2.5 -1.203125 L 0.4375 -1.203125 L 0.4375 -1.46875 L 2.328125 -1.46875 L 2.1875 -1.375 C 2.1875 -1.5625 2.148438 -1.726562 2.078125 -1.875 C 2.015625 -2.019531 1.921875 -2.132812 1.796875 -2.21875 C 1.679688 -2.300781 1.539062 -2.34375 1.375 -2.34375 C 1.21875 -2.34375 1.078125 -2.296875 0.953125 -2.203125 C 0.828125 -2.117188 0.726562 -2.003906 0.65625 -1.859375 C 0.59375 -1.722656 0.5625 -1.566406 0.5625 -1.390625 L 0.5625 -1.234375 C 0.5625 -1.035156 0.59375 -0.859375 0.65625 -0.703125 C 0.726562 -0.554688 0.828125 -0.441406 0.953125 -0.359375 C 1.085938 -0.273438 1.242188 -0.234375 1.421875 -0.234375 C 1.546875 -0.234375 1.65625 -0.25 1.75 -0.28125 C 1.84375 -0.320312 1.921875 -0.375 1.984375 -0.4375 C 2.054688 -0.507812 2.109375 -0.585938 2.140625 -0.671875 L 2.4375 -0.59375 C 2.394531 -0.476562 2.328125 -0.367188 2.234375 -0.265625 C 2.140625 -0.171875 2.023438 -0.09375 1.890625 -0.03125 C 1.753906 0.0195312 1.597656 0.046875 1.421875 0.046875 Z M 1.421875 0.046875 "/></g></g></g><g fill="#4a4a4a" fill-opacity="1"><g transform="translate(81.51715, 4.992335)"><g><path d="M 0.640625 0.03125 C 0.566406 0.03125 0.503906 0.0078125 0.453125 -0.03125 C 0.410156 -0.0820312 0.390625 -0.144531 0.390625 -0.21875 C 0.390625 -0.289062 0.410156 -0.347656 0.453125 -0.390625 C 0.503906 -0.441406 0.566406 -0.46875 0.640625 -0.46875 C 0.710938 -0.46875 0.769531 -0.441406 0.8125 -0.390625 C 0.863281 -0.347656 0.890625 -0.289062 0.890625 -0.21875 C 0.890625 -0.144531 0.863281 -0.0820312 0.8125 -0.03125 C 0.769531 0.0078125 0.710938 0.03125 0.640625 0.03125 Z M 0.640625 0.03125 "/></g></g></g></g></g></svg>